<?xml version="1.0" standalone="no"?>
<!DOCTYPE svg PUBLIC "-//W3C//DTD SVG 20010904//EN"
 "http://www.w3.org/TR/2001/REC-SVG-20010904/DTD/svg10.dtd">
<svg version="1.0" xmlns="http://www.w3.org/2000/svg"
 width="120.000000pt" height="120.000000pt" viewBox="0 0 120.000000 120.000000"
 preserveAspectRatio="xMidYMid meet">

<g transform="translate(0.000000,120.000000) scale(0.100000,-0.100000)"
fill="#000000" stroke="none">
<path d="M27 893 c-4 -3 -7 -129 -7 -280 l0 -273 130 0 130 0 0 280 0 280
-123 0 c-68 0 -127 -3 -130 -7z m213 -203 c0 -5 -8 -14 -17 -20 -16 -9 -16
-11 -2 -20 11 -6 15 -24 15 -62 l-1 -53 -87 -3 -88 -3 0 36 c0 28 4 35 20 35
11 0 20 -7 20 -15 0 -8 7 -15 15 -15 8 0 15 7 15 15 0 8 7 15 15 15 8 0 15 -7
15 -15 0 -22 37 -18 43 4 7 27 0 31 -52 31 -73 0 -91 8 -91 41 0 25 4 28 38
32 76 8 142 7 142 -3z"/>
<path d="M143 653 c9 -2 23 -2 30 0 6 3 -1 5 -18 5 -16 0 -22 -2 -12 -5z"/>
<path d="M330 615 l0 -265 90 0 c170 0 176 11 172 328 l-2 144 -29 29 c-29 28
-32 29 -130 29 l-101 0 0 -265z m154 159 c12 -31 7 -309 -6 -322 -34 -34 -38
-16 -38 163 0 165 1 175 19 175 10 0 22 -7 25 -16z"/>
<path d="M640 615 l0 -265 110 0 110 0 0 50 0 50 -55 0 -55 0 0 65 0 65 51 0
50 0 -3 48 -3 47 -47 3 -48 3 0 50 0 49 50 0 50 0 0 50 0 50 -105 0 -105 0 0
-265z"/>
<path d="M883 853 c3 -16 18 -135 33 -265 l28 -238 73 0 c40 0 73 1 74 3 0 1
15 119 32 262 l33 260 -39 3 c-22 2 -45 1 -52 -1 -8 -4 -16 -57 -25 -161 -7
-86 -16 -156 -20 -156 -3 0 -12 60 -19 133 -19 199 -15 187 -73 187 -50 0 -50
0 -45 -27z"/>
</g>
</svg>
