<?xml version="1.0" standalone="no"?>
<!DOCTYPE svg PUBLIC "-//W3C//DTD SVG 20010904//EN"
 "http://www.w3.org/TR/2001/REC-SVG-20010904/DTD/svg10.dtd">
<svg version="1.0" xmlns="http://www.w3.org/2000/svg"
 width="500.000000pt" height="500.000000pt" viewBox="0 0 500.000000 500.000000"
 preserveAspectRatio="xMidYMid meet">

<g transform="translate(0.000000,500.000000) scale(0.100000,-0.100000)"
fill="#000000" stroke="none">
<path d="M100 2570 l0 -1160 535 0 535 0 0 1160 0 1160 -535 0 -535 0 0 -1160z
m880 295 l0 -75 -39 0 c-61 0 -71 -7 -71 -51 0 -39 0 -39 39 -39 67 0 71 -4
71 -81 0 -48 -4 -69 -12 -69 -24 -1 -673 61 -696 66 -21 4 -22 8 -22 125 0 86
3 121 13 124 6 3 167 20 357 39 190 18 348 34 353 35 4 0 7 -33 7 -74z m0
-490 l0 -155 -362 2 -363 3 0 145 0 145 73 3 72 3 0 -71 0 -70 43 0 c23 0 52
-3 64 -6 21 -6 22 -3 25 62 l3 69 72 3 72 3 3 -68 3 -68 75 0 75 0 3 78 3 77
69 0 70 0 0 -155z"/>
<path d="M555 2756 c-66 -6 -115 -14 -110 -17 6 -4 66 -10 135 -13 69 -4 133
-9 143 -12 13 -4 17 1 17 25 0 36 10 35 -185 17z"/>
<path d="M1380 2564 l0 -1116 363 4 c341 4 366 6 429 26 150 50 236 160 286
365 19 79 28 922 14 1257 -11 235 -18 274 -70 376 -30 59 -122 139 -188 163
-90 34 -171 41 -511 41 l-323 0 0 -1116z m599 711 c16 -8 34 -28 40 -46 8 -22
11 -230 11 -675 l0 -644 -29 -32 c-26 -30 -35 -33 -100 -36 l-71 -4 0 726 0
726 60 0 c34 0 74 -7 89 -15z"/>
<path d="M2667 3673 c-4 -3 -7 -505 -7 -1115 l0 -1108 460 0 460 0 0 215 0
215 -235 0 -235 0 2 258 3 257 208 3 207 2 0 205 0 205 -207 2 -208 3 -3 218
-2 217 220 0 220 0 0 215 0 215 -438 0 c-241 0 -442 -3 -445 -7z"/>
<path d="M3670 3660 c0 -21 255 -2103 266 -2172 l6 -38 302 0 302 0 132 1083
c74 595 136 1097 139 1115 l5 32 -210 0 -209 0 -6 -37 c-3 -21 -36 -362 -73
-757 -44 -459 -71 -709 -76 -690 -7 28 -158 1430 -158 1467 0 16 -17 17 -210
17 -204 0 -210 -1 -210 -20z"/>
</g>
</svg>
